
          <svg data-logo="logo" xmlns="http://www.w3.org/2000/svg" viewBox="0 0 243 43">
            <g id="logogram" transform="translate(0, 1) rotate(0)"><path d="M28.4698 19.5732C29.9143 18.3635 30.8329 16.5467 30.8329 14.5152C30.8329 12.4838 29.9143 10.6669 28.4698 9.4573C28.6354 9.37713 28.7947 9.29013 28.9465 9.19585C29.9046 8.6001 31.0354 8.25604 32.2467 8.25604C35.7036 8.25604 38.5059 11.0584 38.5059 14.5152C38.5059 17.9721 35.7036 20.7744 32.2467 20.7744C31.0354 20.7744 29.9046 20.4303 28.9465 19.8346C28.7947 19.7404 28.6354 19.6534 28.4698 19.5732Z" fill="url(#paint0_linear_5557_2016)"/><path d="M26.7314 15.5006C27.3776 13.7308 27.2646 11.698 26.2489 9.93878C25.2332 8.17951 23.5292 7.06533 21.6734 6.74C21.7768 6.58784 21.8712 6.43283 21.9554 6.27528C22.4873 5.28031 23.2947 4.41689 24.3436 3.81127C27.3374 2.08284 31.1655 3.10857 32.8939 6.10228C34.6223 9.09601 33.5966 12.9241 30.6028 14.6525C29.5539 15.2581 28.4024 15.5256 27.2748 15.4888C27.0963 15.4829 26.9148 15.4873 26.7314 15.5006Z" fill="url(#paint1_linear_5557_2016)"/><path d="M23.1894 12.8428C22.8641 10.987 21.7499 9.28305 19.9906 8.26733C18.2314 7.25161 16.1986 7.1387 14.4288 7.78483C14.4422 7.60142 14.4465 7.41994 14.4406 7.24141C14.4038 6.11376 14.6713 4.96234 15.2769 3.91335C17.0054 0.919631 20.8334 -0.106094 23.8272 1.62233C26.8209 3.35076 27.8467 7.17882 26.1182 10.1726C25.5125 11.2215 24.6492 12.0289 23.6541 12.5608C23.4967 12.6451 23.3417 12.7395 23.1894 12.8428Z" fill="url(#paint2_linear_5557_2016)"/><path d="M18.7926 12.3122C17.5829 10.8677 15.7661 9.94911 13.7346 9.94911C11.7031 9.94911 9.88625 10.8677 8.67663 12.3122C8.59651 12.1466 8.50949 11.9873 8.41516 11.8355C7.81944 10.8774 7.47538 9.74654 7.47538 8.53526C7.47538 5.0784 10.2777 2.27606 13.7346 2.27606C17.1914 2.27606 19.9938 5.0784 19.9938 8.53526C19.9938 9.74654 19.6497 10.8774 19.054 11.8355C18.9596 11.9873 18.8726 12.1466 18.7926 12.3122Z" fill="url(#paint3_linear_5557_2016)"/><path d="M14.7191 14.0507C12.9493 13.4046 10.9165 13.5175 9.1572 14.5331C7.39792 15.5489 6.28374 17.2529 5.95842 19.1086C5.80626 19.0053 5.65124 18.9109 5.49369 18.8267C4.49872 18.2947 3.6353 17.4874 3.02968 16.4384C1.30124 13.4446 2.32696 9.61663 5.32069 7.88818C8.31442 6.15974 12.1425 7.18546 13.871 10.1792C14.4766 11.2282 14.7441 12.3796 14.7072 13.5072C14.7014 13.6857 14.7056 13.8672 14.7191 14.0507Z" fill="url(#paint4_linear_5557_2016)"/><path d="M12.0601 17.5931C10.2043 17.9184 8.50038 19.0326 7.48466 20.7919C6.46894 22.5511 6.35603 24.5839 7.00217 26.3537C6.81874 26.3403 6.63723 26.336 6.45868 26.3418C5.33105 26.3787 4.17963 26.1112 3.13065 25.5056C0.136916 23.7771 -0.888811 19.9491 0.839618 16.9553C2.56804 13.9616 6.39611 12.9358 9.38984 14.6643C10.4388 15.27 11.2462 16.1333 11.7781 17.1282C11.8623 17.2858 11.9568 17.4408 12.0601 17.5931Z" fill="url(#paint5_linear_5557_2016)"/><path d="M11.5285 21.9901C10.084 23.1998 9.16541 25.0166 9.16541 27.048C9.16541 29.0795 10.084 30.8964 11.5285 32.106C11.363 32.1861 11.2036 32.2732 11.0519 32.3675C10.0938 32.9631 8.96287 33.3072 7.75161 33.3072C4.29476 33.3072 1.49242 30.5049 1.49242 27.048C1.49242 23.5911 4.29476 20.7888 7.75161 20.7888C8.96287 20.7888 10.0938 21.1329 11.0519 21.7287C11.2036 21.823 11.363 21.91 11.5285 21.9901Z" fill="url(#paint6_linear_5557_2016)"/><path d="M13.2665 26.0638C12.6202 27.8336 12.7331 29.8663 13.7489 31.6256C14.7646 33.385 16.4686 34.4991 18.3243 34.8244C18.221 34.9766 18.1266 35.1316 18.0424 35.2892C17.5105 36.2841 16.7031 37.1475 15.6541 37.7531C12.6604 39.4816 8.83232 38.4558 7.1039 35.4622C5.37546 32.4684 6.4012 28.6404 9.39491 26.9119C10.4439 26.3063 11.5953 26.0388 12.723 26.0757C12.9015 26.0815 13.083 26.0772 13.2665 26.0638Z" fill="url(#paint7_linear_5557_2016)"/><path d="M16.8086 28.7227C17.134 30.5784 18.2482 32.2824 20.0074 33.298C21.7667 34.3138 23.7996 34.4267 25.5694 33.7806C25.5559 33.9641 25.5517 34.1455 25.5574 34.3241C25.5943 35.4517 25.3269 36.6031 24.7212 37.6521C22.9928 40.6458 19.1647 41.6715 16.171 39.943C13.1772 38.2147 12.1515 34.3867 13.88 31.3929C14.4856 30.3439 15.349 29.5366 16.3439 29.0046C16.5015 28.9204 16.6565 28.8259 16.8086 28.7227Z" fill="url(#paint8_linear_5557_2016)"/><path d="M21.2057 29.2545C22.4153 30.6989 24.2322 31.6175 26.2637 31.6175C28.2952 31.6175 30.112 30.6989 31.3217 29.2545C31.4017 29.42 31.4887 29.5793 31.5831 29.731C32.1788 30.6891 32.5229 31.8201 32.5229 33.0313C32.5229 36.4882 29.7206 39.2905 26.2637 39.2905C22.8068 39.2905 20.0045 36.4882 20.0045 33.0313C20.0045 31.8201 20.3485 30.6891 20.9442 29.731C21.0386 29.5793 21.1256 29.42 21.2057 29.2545Z" fill="url(#paint9_linear_5557_2016)"/><path d="M25.2794 27.5164C27.0492 28.1626 29.0819 28.0496 30.8412 27.034C32.6005 26.0183 33.7147 24.3143 34.04 22.4586C34.1921 22.5618 34.3471 22.6563 34.5047 22.7405C35.4997 23.2724 36.3631 24.0798 36.9687 25.1288C38.6972 28.1225 37.6714 31.9505 34.6778 33.679C31.684 35.4074 27.856 34.3817 26.1275 31.3879C25.5219 30.339 25.2544 29.1876 25.2912 28.0599C25.2971 27.8814 25.2928 27.6999 25.2794 27.5164Z" fill="url(#paint10_linear_5557_2016)"/><path d="M32.5176 20.7687C32.5163 20.7709 32.515 20.7731 32.5138 20.7753C31.4981 22.5346 29.7942 23.6488 27.9384 23.9741C28.0416 24.1263 28.1361 24.2813 28.2204 24.4388C28.7523 25.4338 29.5597 26.2972 30.6086 26.9028C33.6024 28.6313 37.4304 27.6055 39.1589 24.6119C40.6406 22.0452 40.0982 18.8654 38.0268 16.9211C37.1168 19.105 35.0051 20.6627 32.5176 20.7687Z" fill="url(#paint11_linear_5557_2016)"/></g>
            <g id="logotype" transform="translate(46, 8.5)"><path fill="#111111" d="M6.84 6.15L6.84 1.43L25.81 1.43L25.81 6.15L19.27 6.15L19.27 26L13.35 26L13.35 6.15L6.84 6.15ZM32.32 26.25L32.32 26.25Q29.77 26.25 27.86 24.91Q25.95 23.59 24.92 21.33Q23.89 19.07 23.89 16.23L23.89 16.23Q23.89 13.43 24.92 11.16Q25.95 8.88 27.86 7.55Q29.77 6.22 32.32 6.22L32.32 6.22Q34.56 6.22 36.22 7.43Q37.89 8.64 38.55 10.81L38.55 10.81L38.55 6.47L44.47 6.47L44.47 26L41.56 26Q40.16 26 39.36 25.21Q38.55 24.43 38.55 23.02L38.55 23.02L38.55 21.70Q37.89 23.83 36.22 25.04Q34.56 26.25 32.32 26.25ZM34.25 21.06L34.25 21.06Q35.40 21.06 36.38 20.50Q37.36 19.95 37.95 18.86Q38.55 17.77 38.55 16.23L38.55 16.23Q38.55 14.73 37.95 13.64Q37.36 12.56 36.38 11.96Q35.40 11.37 34.25 11.37L34.25 11.37Q33.05 11.37 32.08 11.96Q31.10 12.56 30.52 13.64Q29.94 14.73 29.94 16.23L29.94 16.23Q29.94 17.77 30.52 18.86Q31.10 19.95 32.09 20.50Q33.09 21.06 34.25 21.06ZM47.62 19.95L47.62 19.95L47.62 0.10L53.53 0.10L53.53 19.66Q53.53 20.43 54.00 20.82Q54.48 21.20 55.11 21.20L55.11 21.20Q55.53 21.20 55.91 21.06L55.91 21.06L56.86 25.61Q55.45 26.25 53.70 26.25L53.70 26.25Q52.23 26.25 50.84 25.65Q49.44 25.05 48.52 23.67Q47.62 22.29 47.62 19.95ZM64.24 26L58.33 26L58.33 0.10L64.24 0.10L64.24 14.10Q65.85 13.75 67.30 12.66Q68.75 11.58 69.81 9.97Q70.86 8.36 71.24 6.47L71.24 6.47L77.50 6.47Q76.98 8.64 75.72 10.60Q74.46 12.56 72.80 14.03Q71.14 15.50 69.28 16.27L69.28 16.27Q70.72 16.62 72.08 17.56Q73.45 18.51 74.62 19.82Q75.79 21.13 76.61 22.73Q77.44 24.32 77.75 26L77.75 26L71.42 26Q71.10 24.50 70.40 23.22Q69.70 21.94 68.74 20.99Q67.78 20.05 66.62 19.45Q65.47 18.86 64.24 18.68L64.24 18.68L64.24 26ZM78.87 26L78.87 1.43L85.84 1.43L93.96 21.38L91.54 21.73L99.70 1.43L106.63 1.43L106.63 26L100.71 26L100.71 5.66L102.67 5.98L95.15 26L90.39 26L82.86 5.98L84.79 5.66L84.79 26L78.87 26ZM116.99 26.25L116.99 26.25Q114.43 26.25 112.52 24.91Q110.62 23.59 109.58 21.33Q108.55 19.07 108.55 16.23L108.55 16.23Q108.55 13.43 109.58 11.16Q110.62 8.88 112.52 7.55Q114.43 6.22 116.99 6.22L116.99 6.22Q119.23 6.22 120.89 7.43Q122.55 8.64 123.22 10.81L123.22 10.81L123.22 6.47L129.13 6.47L129.13 26L126.23 26Q124.83 26 124.02 25.21Q123.22 24.43 123.22 23.02L123.22 23.02L123.22 21.70Q122.55 23.83 120.89 25.04Q119.23 26.25 116.99 26.25ZM118.91 21.06L118.91 21.06Q120.07 21.06 121.05 20.50Q122.03 19.95 122.62 18.86Q123.22 17.77 123.22 16.23L123.22 16.23Q123.22 14.73 122.62 13.64Q122.03 12.56 121.05 11.96Q120.07 11.37 118.91 11.37L118.91 11.37Q117.72 11.37 116.74 11.96Q115.76 12.56 115.18 13.64Q114.61 14.73 114.61 16.23L114.61 16.23Q114.61 17.77 115.18 18.86Q115.76 19.95 116.76 20.50Q117.76 21.06 118.91 21.06ZM139.84 26.25L139.84 26.25Q137.71 26.25 135.94 25.58Q134.17 24.91 132.98 23.71Q131.79 22.50 131.27 20.93L131.27 20.93L136.73 19.70Q136.97 20.71 137.79 21.29Q138.62 21.87 139.81 21.87L139.81 21.87Q140.96 21.87 141.59 21.40Q142.22 20.93 142.22 20.26L142.22 20.26Q142.22 19.45 141.45 19.05Q140.68 18.65 139.44 18.37Q138.20 18.09 136.83 17.77Q135.47 17.46 134.24 16.85Q133.02 16.23 132.25 15.15Q131.48 14.06 131.48 12.31L131.48 12.31Q131.48 10.63 132.40 9.27Q133.33 7.90 135.10 7.06Q136.87 6.22 139.42 6.22L139.42 6.22Q141.56 6.22 143.18 6.89Q144.81 7.55 145.88 8.73Q146.95 9.90 147.40 11.51L147.40 11.51L142.19 12.87Q141.98 11.82 141.24 11.23Q140.51 10.63 139.28 10.63L139.28 10.63Q138.16 10.63 137.60 11.05Q137.04 11.47 137.04 12.17L137.04 12.17Q137.04 12.94 137.81 13.38Q138.58 13.82 139.81 14.10Q141.03 14.38 142.40 14.75Q143.76 15.11 144.99 15.74Q146.21 16.38 146.98 17.49Q147.75 18.61 147.75 20.40L147.75 20.40Q147.75 22.08 146.79 23.41Q145.83 24.74 144.04 25.49Q142.26 26.25 139.84 26.25ZM158.22 26.25L158.22 26.25Q155.00 26.25 153.28 24.48Q151.57 22.71 151.57 19.35L151.57 19.35L151.57 11.26L148.45 11.26L148.45 6.47L161.37 6.47L161.37 11.26L157.48 11.26L157.48 19.42Q157.48 20.26 158.02 20.73Q158.57 21.20 159.34 21.20L159.34 21.20Q159.69 21.20 159.98 21.12Q160.28 21.03 160.56 20.86L160.56 20.86L162.03 25.20Q161.19 25.65 160.26 25.95Q159.34 26.25 158.22 26.25ZM155.28 6.47L149.99 8.04L149.99 6.47Q150.76 6.47 151.25 5.98Q151.74 5.49 151.74 4.72L151.74 4.72L151.74 1.71L157.48 1.71L157.48 3.81Q157.48 4.30 157.24 4.88Q156.99 5.45 156.48 5.89Q155.98 6.33 155.28 6.47L155.28 6.47ZM173.30 26.25L173.30 26.25Q171.17 26.25 169.22 25.58Q167.28 24.91 165.79 23.64Q164.31 22.36 163.45 20.54Q162.59 18.72 162.59 16.38L162.59 16.38Q162.59 14.13 163.41 12.28Q164.24 10.42 165.65 9.06Q167.07 7.69 168.94 6.96Q170.82 6.22 172.92 6.22L172.92 6.22Q174.63 6.22 176.19 6.68Q177.75 7.13 178.99 8.01Q180.23 8.88 180.95 10.07Q181.67 11.26 181.67 12.73L181.67 12.73Q181.67 14.59 180.62 15.81Q179.57 17.04 177.87 17.74Q176.17 18.44 174.16 18.74Q172.15 19.04 170.19 19L170.19 19Q169.94 19 169.61 18.98Q169.28 18.96 169.00 18.95Q168.72 18.93 168.58 18.93L168.58 18.93Q168.79 19.73 169.47 20.38Q170.15 21.03 171.20 21.41Q172.25 21.80 173.37 21.80L173.37 21.80Q174.49 21.80 175.52 21.41Q176.56 21.03 177.40 20.43Q178.24 19.84 178.83 19.11L178.83 19.11L182.61 22.08Q181.56 23.48 180.06 24.41Q178.55 25.34 176.82 25.79Q175.09 26.25 173.30 26.25ZM170.22 15.11L170.22 15.11Q171.17 15.11 172.18 15.01Q173.20 14.90 174.05 14.64Q174.91 14.38 175.45 13.91Q176.00 13.43 176.00 12.70L176.00 12.70Q176.00 12.10 175.58 11.65Q175.16 11.19 174.46 10.95Q173.76 10.70 172.95 10.70L172.95 10.70Q171.55 10.70 170.50 11.37Q169.45 12.03 168.89 13.03Q168.33 14.03 168.26 15.04L168.26 15.04Q168.58 15.08 169.12 15.10Q169.66 15.11 170.22 15.11ZM190.10 26L184.19 26L184.19 6.47L190.10 6.47L190.10 26ZM190.10 17.60L189.19 17.60L190.10 11.19Q190.73 8.92 192.31 7.61Q193.88 6.29 196.33 6.29L196.33 6.29L196.33 12.45Q195.95 12.38 195.60 12.35Q195.25 12.31 194.90 12.31L194.90 12.31Q193.60 12.31 192.52 12.93Q191.43 13.54 190.77 14.71Q190.10 15.88 190.10 17.60L190.10 17.60Z"/></g>
            <defs xmlns="http://www.w3.org/2000/svg">
<linearGradient id="paint0_linear_5557_2016" x1="29.2535" y1="8.25604" x2="29.2535" y2="20.7744" gradientUnits="userSpaceOnUse">
<stop stop-color="#25136D"/>
<stop offset="1" stop-color="#3D9BA2"/>
</linearGradient>
<linearGradient id="paint1_linear_5557_2016" x1="21.7515" y1="5.30784" x2="28.0107" y2="16.1491" gradientUnits="userSpaceOnUse">
<stop stop-color="#25136D"/>
<stop offset="1" stop-color="#3D9BA2"/>
</linearGradient>
<linearGradient id="paint2_linear_5557_2016" x1="13.7804" y1="6.50551" x2="24.6216" y2="12.7647" gradientUnits="userSpaceOnUse">
<stop stop-color="#25136D"/>
<stop offset="1" stop-color="#3D9BA2"/>
</linearGradient>
<linearGradient id="paint3_linear_5557_2016" x1="7.47538" y1="11.5284" x2="19.9938" y2="11.5284" gradientUnits="userSpaceOnUse">
<stop stop-color="#25136D"/>
<stop offset="1" stop-color="#3D9BA2"/>
</linearGradient>
<linearGradient id="paint4_linear_5557_2016" x1="4.52626" y1="19.0305" x2="15.3675" y2="12.7713" gradientUnits="userSpaceOnUse">
<stop stop-color="#25136D"/>
<stop offset="1" stop-color="#3D9BA2"/>
</linearGradient>
<linearGradient id="paint5_linear_5557_2016" x1="5.72282" y1="27.0021" x2="11.982" y2="16.1609" gradientUnits="userSpaceOnUse">
<stop stop-color="#25136D"/>
<stop offset="1" stop-color="#3D9BA2"/>
</linearGradient>
<linearGradient id="paint6_linear_5557_2016" x1="10.7448" y1="33.3072" x2="10.7448" y2="20.7888" gradientUnits="userSpaceOnUse">
<stop stop-color="#25136D"/>
<stop offset="1" stop-color="#3D9BA2"/>
</linearGradient>
<linearGradient id="paint7_linear_5557_2016" x1="18.2463" y1="36.2566" x2="11.9871" y2="25.4153" gradientUnits="userSpaceOnUse">
<stop stop-color="#25136D"/>
<stop offset="1" stop-color="#3D9BA2"/>
</linearGradient>
<linearGradient id="paint8_linear_5557_2016" x1="26.2178" y1="35.06" x2="15.3765" y2="28.8007" gradientUnits="userSpaceOnUse">
<stop stop-color="#25136D"/>
<stop offset="1" stop-color="#3D9BA2"/>
</linearGradient>
<linearGradient id="paint9_linear_5557_2016" x1="32.5229" y1="30.0381" x2="20.0045" y2="30.0381" gradientUnits="userSpaceOnUse">
<stop stop-color="#25136D"/>
<stop offset="1" stop-color="#3D9BA2"/>
</linearGradient>
<linearGradient id="paint10_linear_5557_2016" x1="35.4722" y1="22.5366" x2="24.6309" y2="28.7958" gradientUnits="userSpaceOnUse">
<stop stop-color="#25136D"/>
<stop offset="1" stop-color="#3D9BA2"/>
</linearGradient>
<linearGradient id="paint11_linear_5557_2016" x1="34.2757" y1="14.565" x2="28.0165" y2="25.4063" gradientUnits="userSpaceOnUse">
<stop stop-color="#25136D"/>
<stop offset="1" stop-color="#3D9BA2"/>
</linearGradient>
</defs>
          </svg>
        